<svg width="20" height="20" viewBox="0 0 20 20" fill="none" xmlns="http://www.w3.org/2000/svg">
<path d="M9.85747 9.63408C11.181 9.63408 12.327 9.15938 13.2635 8.22279C14.1998 7.28636 14.6747 6.14058 14.6747 4.81689C14.6747 3.49365 14.2 2.34771 13.2634 1.41098C12.3268 0.4747 11.1809 0 9.85747 0C8.53378 0 7.388 0.4747 6.45157 1.41113C5.51514 2.34756 5.04028 3.49349 5.04028 4.81689C5.04028 6.14058 5.51514 7.28652 6.45157 8.22295C7.3883 9.15922 8.53423 9.63408 9.85747 9.63408ZM7.28042 2.23983C7.99896 1.5213 8.84185 1.17203 9.85747 1.17203C10.8729 1.17203 11.716 1.5213 12.4347 2.23983C13.1532 2.95852 13.5026 3.80157 13.5026 4.81689C13.5026 5.83251 13.1532 6.6754 12.4347 7.39409C11.716 8.11278 10.8729 8.46205 9.85747 8.46205C8.84216 8.46205 7.99926 8.11263 7.28042 7.39409C6.56173 6.67555 6.21231 5.83251 6.21231 4.81689C6.21231 3.80157 6.56173 2.95852 7.28042 2.23983Z" fill="#00730C"/>
<path d="M18.2863 15.3789C18.2592 14.9892 18.2046 14.564 18.1242 14.1151C18.043 13.6629 17.9385 13.2353 17.8134 12.8445C17.684 12.4406 17.5084 12.0418 17.2909 11.6595C17.0656 11.2628 16.8007 10.9174 16.5034 10.6331C16.1926 10.3357 15.812 10.0966 15.372 9.92218C14.9334 9.74869 14.4475 9.6608 13.9276 9.6608C13.7234 9.6608 13.526 9.74457 13.1447 9.99283C12.91 10.1459 12.6355 10.3229 12.3291 10.5186C12.0671 10.6856 11.7122 10.842 11.2738 10.9836C10.8461 11.122 10.4118 11.1922 9.98305 11.1922C9.55458 11.1922 9.12032 11.122 8.69231 10.9836C8.25438 10.8421 7.89931 10.6857 7.63778 10.5188C7.33428 10.3249 7.05962 10.1479 6.82143 9.99268C6.44042 9.74442 6.24297 9.66064 6.03881 9.66064C5.51879 9.66064 5.03295 9.74869 4.59457 9.92233C4.15481 10.0964 3.77411 10.3355 3.46298 10.6332C3.16574 10.9177 2.90085 11.263 2.67563 11.6595C2.45849 12.0418 2.28271 12.4405 2.15332 12.8447C2.02835 13.2355 1.92383 13.6629 1.84265 14.1151C1.76208 14.5634 1.70761 14.9887 1.6806 15.3793C1.65405 15.7613 1.64062 16.1587 1.64062 16.5604C1.64062 17.6044 1.9725 18.4495 2.62695 19.0729C3.27331 19.6879 4.12841 19.9998 5.1686 19.9998H14.7987C15.8386 19.9998 16.6937 19.6879 17.3402 19.0729C17.9948 18.45 18.3267 17.6045 18.3267 16.5602C18.3265 16.1572 18.313 15.7597 18.2863 15.3789ZM16.5321 18.2237C16.105 18.6302 15.538 18.8278 14.7986 18.8278H5.1686C4.42901 18.8278 3.862 18.6302 3.43506 18.2239C3.0162 17.8251 2.81265 17.2809 2.81265 16.5604C2.81265 16.1856 2.82501 15.8156 2.84973 15.4603C2.87384 15.1118 2.92312 14.729 2.99621 14.3222C3.06839 13.9204 3.16025 13.5434 3.2695 13.2021C3.37433 12.8748 3.5173 12.5507 3.69461 12.2385C3.86383 11.9409 4.05853 11.6856 4.27337 11.4799C4.47433 11.2875 4.72763 11.1301 5.02609 11.012C5.30212 10.9027 5.61233 10.8429 5.94909 10.8339C5.99013 10.8557 6.06322 10.8974 6.18163 10.9746C6.42257 11.1316 6.70028 11.3107 7.00728 11.5068C7.35335 11.7274 7.79921 11.9267 8.3319 12.0987C8.87648 12.2748 9.4319 12.3642 9.9832 12.3642C10.5345 12.3642 11.0901 12.2748 11.6344 12.0988C12.1675 11.9266 12.6132 11.7274 12.9597 11.5065C13.2739 11.3057 13.5438 11.1317 13.7848 10.9746C13.9032 10.8975 13.9763 10.8557 14.0173 10.8339C14.3542 10.8429 14.6644 10.9027 14.9406 11.012C15.2389 11.1301 15.4922 11.2877 15.6932 11.4799C15.908 11.6855 16.1027 11.9408 16.2719 12.2386C16.4494 12.5507 16.5925 12.8749 16.6972 13.2019C16.8066 13.5437 16.8986 13.9206 16.9706 14.322C17.0436 14.7296 17.093 15.1126 17.1171 15.4605V15.4608C17.142 15.8147 17.1545 16.1845 17.1547 16.5604C17.1545 17.281 16.951 17.8251 16.5321 18.2237Z" fill="#00730C"/>
</svg>
