<svg width="20" height="20" viewBox="0 0 20 20" fill="none" xmlns="http://www.w3.org/2000/svg">
<mask id="mask0_16632_31572" style="mask-type:alpha" maskUnits="userSpaceOnUse" x="0" y="0" width="20" height="20">
<rect width="20" height="20" fill="#C4C4C4"/>
</mask>
<g mask="url(#mask0_16632_31572)">
<path d="M10.3296 3.50994C9.28271 3.67327 8.45904 4.28648 8.02329 5.22636C7.70976 5.90834 7.64599 6.32384 7.64599 7.73652V8.73657H6.74527C6.24575 8.73657 5.81266 8.74803 5.77812 8.76235C5.74092 8.77955 5.68512 8.81966 5.65589 8.85405C5.6001 8.91709 5.6001 8.93715 5.6001 10.2381C5.6001 11.4473 5.60541 11.5648 5.64792 11.6192C5.73826 11.7424 5.7728 11.7453 6.72667 11.7453H7.64599V14.84V17.9347L7.72304 18.0264L7.8001 18.121L9.03826 18.1296C10.1303 18.1353 10.2871 18.1325 10.3588 18.0923C10.5235 18.0006 10.5156 18.1439 10.5156 14.797V11.7453H11.5784C12.3436 11.7453 12.6571 11.7367 12.7076 11.7109C12.8537 11.6393 12.8537 11.6278 12.8537 10.2295V8.93715L12.7767 8.84545L12.6996 8.75089L11.6049 8.7423L10.5129 8.7337L10.5209 7.80815L10.5288 6.88547L10.6086 6.71641C10.6962 6.53302 10.8424 6.4098 11.039 6.35249C11.0948 6.3353 11.488 6.3181 11.9105 6.31237C12.3356 6.30378 12.7102 6.29232 12.7421 6.28372C12.7767 6.27512 12.8351 6.23501 12.8697 6.19489L12.9334 6.12039V4.8825C12.9334 3.66754 12.9334 3.64462 12.8776 3.58158C12.8484 3.54719 12.7926 3.50707 12.7554 3.48988C12.6491 3.4469 10.6272 3.46409 10.3296 3.50994Z" fill="#00730C"/>
</g>
</svg>
