<svg width="50" height="50" viewBox="0 0 50 50" fill="none" xmlns="http://www.w3.org/2000/svg">
<g clip-path="url(#clip0_15783_29266)">
<path d="M20.6054 39.6975C20.6054 35.6591 17.3195 32.3733 13.2812 32.3733C9.24277 32.3733 5.95703 35.6592 5.95703 39.6975C5.95703 43.7358 9.24277 47.0217 13.2812 47.0217C17.4801 47.0217 20.6054 43.5818 20.6054 39.6975ZM11.8163 39.6975C11.8163 38.8883 12.4722 38.2327 13.2812 38.2327C14.0901 38.2327 14.746 38.8883 14.746 39.6975C14.746 40.5065 14.0901 41.1624 13.2812 41.1624C12.4722 41.1624 11.8163 40.5065 11.8163 39.6975Z" fill="#ffffff"/>
<path d="M44.1405 35.303C40.909 35.303 38.2812 37.9308 38.2812 41.1624C38.2812 44.3113 40.8305 47.0217 44.1405 47.0217C47.3721 47.0217 49.9999 44.3939 49.9999 41.1624C49.9999 37.853 47.3025 35.303 44.1405 35.303Z" fill="#ffffff"/>
<path d="M44.1405 32.3731C44.9687 32.3731 45.7543 32.5183 46.5323 32.7456C45.6865 30.6259 43.89 28.9518 41.5742 28.3462C22.3432 23.3719 25.0594 24.1061 23.8898 23.8044C20.9358 23.0619 17.5398 24.3365 15.8818 26.9901L14.2661 29.543C19.4522 30.0473 23.5352 34.3812 23.5352 39.6973C23.5352 41.2254 23.1736 42.7234 22.5193 44.0918H35.8688C35.8651 44.0809 35.8588 44.0712 35.8551 44.0604C35.5289 43.1907 35.3516 42.1921 35.3516 41.1622C35.3515 36.3156 39.2939 32.3731 44.1405 32.3731ZM27.9296 36.7676C27.9296 37.5773 27.2744 38.2325 26.4647 38.2325C25.6551 38.2325 24.9999 37.5773 24.9999 36.7676V33.8379C24.9999 33.0283 25.6551 32.3731 26.4647 32.3731C27.2744 32.3731 27.9296 33.0283 27.9296 33.8379V36.7676ZM33.8866 36.7676C33.8866 37.5773 33.2314 38.2325 32.4218 38.2325C31.6121 38.2325 30.9569 37.5773 30.9569 36.7676V33.8379C30.9569 33.0283 31.6121 32.3731 32.4218 32.3731C33.2314 32.3731 33.8866 33.0283 33.8866 33.8379V36.7676Z" fill="#ffffff"/>
<path d="M39.7461 23.5842C39.7461 24.3939 40.4988 25.0491 41.3085 25.0491H47.0701C47.8798 25.0491 48.535 24.3939 48.535 23.5842C48.535 22.7746 47.8798 22.1194 47.0701 22.1194H41.3085C40.4988 22.1194 39.7461 22.7746 39.7461 23.5842Z" fill="#ffffff"/>
<path d="M38.5756 19.1896C38.9814 19.8924 39.8797 20.1288 40.5768 19.726L45.6439 16.7964C46.3449 16.3915 46.5852 15.4961 46.1804 14.7951C45.7726 14.0913 44.8758 13.8552 44.1791 14.2587L39.112 17.1883C38.411 17.5932 38.1707 18.4887 38.5756 19.1896Z" fill="#ffffff"/>
<path d="M37.4023 15.4271L40.233 10.3531C40.6379 9.65209 40.3975 8.75658 39.6966 8.35179C38.9956 7.94701 38.0987 8.18441 37.6953 8.88822L34.8646 13.9622C34.4598 14.6632 34.7001 15.5587 35.4011 15.9635C36.0996 16.367 36.9972 16.1287 37.4023 15.4271Z" fill="#ffffff"/>
<path d="M1.00131 5.83254L8.98969 8.56086L11.1224 29.6819C12.9595 29.2857 13.7548 29.4988 14.0512 29.5213L11.8091 7.32355C11.7504 6.74992 11.3614 6.26359 10.8149 6.08186L1.92817 3.05451C1.15571 2.79699 0.331684 3.2133 0.0756291 3.9801C-0.180328 4.74826 0.234516 5.57795 1.00131 5.83254Z" fill="#ffffff"/>
<path d="M32.0399 19.8549C29.1745 19.0881 27.2759 18.6147 26.0399 18.3285C24.7511 17.9924 23.3849 18.2756 22.3135 19.1038C21.7435 19.5446 21.3106 20.1082 21.019 20.7393C22.1364 20.6155 23.2844 20.6318 24.6037 20.9635L35.2543 23.6743L35.2797 23.6851C35.0967 21.8463 33.8347 20.2923 32.0399 19.8549Z" fill="#ffffff"/>
</g>
<defs>
<clipPath id="clip0_15783_29266">
<rect width="50" height="50" fill="white"/>
</clipPath>
</defs>
</svg>
