<svg width="20" height="20" viewBox="0 0 20 20" fill="none" xmlns="http://www.w3.org/2000/svg">
<path d="M16.0836 16.3311V16.3306H16.0869V11.4406C16.0869 9.04834 15.5719 7.20557 12.7753 7.20557C11.4308 7.20557 10.5286 7.94334 10.1603 8.64279H10.1214V7.4289H7.46973V16.3306H10.2308V11.9228C10.2308 10.7622 10.4508 9.64001 11.8881 9.64001C13.3042 9.64001 13.3253 10.9645 13.3253 11.9972V16.3311H16.0836Z" fill="white"/>
<path d="M2.88696 7.42969H5.65141V16.3314H2.88696V7.42969Z" fill="white"/>
<path d="M4.26762 2.77637C3.38373 2.77637 2.6665 3.49359 2.6665 4.37748C2.6665 5.26137 3.38373 5.99359 4.26762 5.99359C5.1515 5.99359 5.86873 5.26137 5.86873 4.37748C5.86817 3.49359 5.15095 2.77637 4.26762 2.77637V2.77637Z" fill="white"/>
</svg>
