<svg width="20" height="21" viewBox="0 0 20 21" fill="none" xmlns="http://www.w3.org/2000/svg">
<g clip-path="url(#clip0_16290_29163)">
<path d="M17.6841 6.66939L12.4598 6.18486L10.3846 1.36598C10.2393 1.02856 9.76088 1.02856 9.61561 1.36598L7.54037 6.18482L2.3161 6.66939C1.95028 6.7033 1.80247 7.1583 2.07845 7.40076L6.02017 10.8635L4.86662 15.9818C4.78584 16.3402 5.17291 16.6214 5.48877 16.4339L10.0001 13.7551L14.5114 16.4339C14.8273 16.6214 15.2143 16.3402 15.1336 15.9818L13.98 10.8635L17.9218 7.40076C18.1977 7.1583 18.0499 6.7033 17.6841 6.66939Z" fill="#00730C"/>
<path d="M11.1392 3.11833L10.3846 1.36598C10.2392 1.02856 9.76085 1.02856 9.61557 1.36598L7.54033 6.18482L2.3161 6.66939C1.95028 6.7033 1.80247 7.1583 2.07845 7.40076L6.02017 10.8635L4.86662 15.9818C4.78584 16.3402 5.17291 16.6214 5.48877 16.4339L6.0892 16.0773C7.07354 9.70545 9.84081 5.02802 11.1392 3.11833Z" fill="#00730C"/>
</g>
<defs>
<clipPath id="clip0_16290_29163">
<rect width="20" height="20" fill="white" transform="translate(0 0.5)"/>
</clipPath>
</defs>
</svg>
