<svg width="20" height="20" viewBox="0 0 20 20" fill="none" xmlns="http://www.w3.org/2000/svg">
<mask id="mask0_16632_31577" style="mask-type:alpha" maskUnits="userSpaceOnUse" x="1" y="3" width="17" height="17">
<rect x="1.84326" y="3.17627" width="16" height="16" fill="#C4C4C4"/>
</mask>
<g mask="url(#mask0_16632_31577)">
<path d="M17.8433 6.21527C17.2483 6.47627 16.6143 6.64927 15.9533 6.73327C16.6333 6.32727 17.1523 5.68927 17.3963 4.92027C16.7623 5.29827 16.0623 5.56527 15.3163 5.71427C14.7143 5.07327 13.8563 4.67627 12.9203 4.67627C11.1043 4.67627 9.64226 6.15027 9.64226 7.95727C9.64226 8.21727 9.66426 8.46727 9.71826 8.70527C6.99126 8.57227 4.57826 7.26527 2.95726 5.27427C2.67426 5.76527 2.50826 6.32727 2.50826 6.93227C2.50826 8.06827 3.09326 9.07527 3.96526 9.65827C3.43826 9.64827 2.92126 9.49527 2.48326 9.25427C2.48326 9.26427 2.48326 9.27727 2.48326 9.29027C2.48326 10.8843 3.62026 12.2083 5.11126 12.5133C4.84426 12.5863 4.55326 12.6213 4.25126 12.6213C4.04126 12.6213 3.82926 12.6093 3.63026 12.5653C4.05526 13.8643 5.26126 14.8193 6.69526 14.8503C5.57926 15.7233 4.16226 16.2493 2.62826 16.2493C2.35926 16.2493 2.10126 16.2373 1.84326 16.2043C3.29626 17.1413 5.01826 17.6763 6.87526 17.6763C12.9113 17.6763 16.2113 12.6763 16.2113 8.34227C16.2113 8.19727 16.2063 8.05727 16.1993 7.91827C16.8503 7.45627 17.3973 6.87927 17.8433 6.21527Z" fill="white"/>
</g>
</svg>
